<svg version="1.1" id="Layer_1" xmlns="http://www.w3.org/2000/svg" xmlns:xlink="http://www.w3.org/1999/xlink" x="0px" y="0px"
	 viewBox="0 0 2795.07 320.58" style="enable-background:new 0 0 2795.07 320.58;" xml:space="preserve">
<style type="text/css">
	.st0{fill:#FFFFFF;}
</style>
<g>
	<rect width="317.11" height="317.11"/>
	<g>
		<path class="st0" d="M309.8,196.01c-8.65,35.42-27.04,63.94-55.15,85.56c-28.12,21.63-60.29,32.44-96.51,32.44
			c-45.96,0-84.08-15.95-114.35-47.85C14.6,235.61,0,199.52,0,157.89c0-41.09,13.92-76.5,41.77-106.24
			c30.27-32.71,68.8-49.07,115.57-49.07c42.71,0,78.93,14.06,108.67,42.17c24.33,22.98,38.93,48.8,43.79,77.45h-80.29
			c-5.41-14.05-13.38-25.55-23.92-34.47c-14.06-11.89-30.28-17.84-48.66-17.84c-24.33,0-44.2,9.33-59.61,27.98
			c-13.79,16.49-20.68,36.36-20.68,59.61c0,23.52,7.16,44.07,21.49,61.64c15.41,18.39,35.14,27.57,59.2,27.57
			c20.54,0,37.98-7.16,52.31-21.49c4.87-4.87,9.33-10.54,13.38-17.03c0.54-1.08,1.22-2.16,2.03-3.24c0.81-1.08,1.48-2.29,2.03-3.65
			l1.22-2.84l1.22-2.43H309.8z"/>
	</g>
	<g>
		<path d="M329.87,202.74c0-31.97,10.9-59.27,32.72-81.88c22.31-23.43,50.82-35.14,85.53-35.14c34.98,0,63.63,11.71,85.95,35.14
			c21.54,22.61,32.31,50.04,32.31,82.29s-10.77,59.54-32.31,81.87c-22.31,23.43-50.97,35.15-85.95,35.15
			c-34.71,0-63.22-11.72-85.53-35.15c-21.82-22.33-32.72-49.61-32.72-81.87V202.74z M360.52,203.35c0,25.41,8.4,46.53,25.21,63.38
			c16.8,16.85,37.61,25.27,62.4,25.27c24.79,0,45.59-8.42,62.4-25.27c16.8-16.84,25.21-38.11,25.21-63.79s-8.4-46.94-25.21-63.79
			c-16.81-16.83-37.61-25.26-62.4-25.26c-24.79,0-45.6,8.43-62.4,25.26c-16.8,16.85-25.21,38.11-25.21,63.79V203.35z"/>
		<path d="M617.75,115.96h-32.72V91.52h32.72V73.29c0-29.82,10.21-50.26,30.65-61.31c7.46-3.87,16.01-6.63,25.68-8.28
			c1.93-0.27,3.86-0.48,5.8-0.63c1.93-0.13,4-0.2,6.21-0.2c1.38-0.27,2.96-0.41,4.76-0.41c1.8,0,3.66,0,5.6,0V26.9h-2.9l-3.73,0.41
			c-1.39,0.27-2.7,0.41-3.94,0.41s-2.42,0.14-3.52,0.41c-6.08,1.1-11.32,2.9-15.74,5.38c-12.15,7.46-18.23,21.68-18.23,42.67v15.33
			h48.05v24.44H648.4v198.41h-30.65V115.96z"/>
		<path d="M720.06,115.96h-32.72V91.52h32.72V73.29c0-29.82,10.21-50.26,30.65-61.31c7.46-3.87,16.01-6.63,25.68-8.28
			c1.93-0.27,3.86-0.48,5.8-0.63c1.93-0.13,4-0.2,6.21-0.2c1.38-0.27,2.96-0.41,4.76-0.41c1.8,0,3.66,0,5.6,0V26.9h-2.9l-3.73,0.41
			c-1.39,0.27-2.7,0.41-3.94,0.41s-2.42,0.14-3.52,0.41c-6.08,1.1-11.32,2.9-15.74,5.38c-12.15,7.46-18.23,21.68-18.23,42.67v15.33
			h48.05v24.44h-48.05v198.41h-30.65V115.96z"/>
		<path d="M833.15,211.64c0.83,26.09,10.79,46.91,29.87,62.45c17.42,13.87,36.51,20.68,57.25,20.4c35.96,0,61.55-15.33,76.76-45.98
			h31.94c-10.51,24.03-25.58,42.07-45.22,54.13c-18.8,11.97-39.97,17.94-63.48,17.94c-36.79,0-66.1-12.56-87.95-37.69
			c-19.88-22.92-29.82-49.43-29.82-79.53c0-33.14,11.18-61.02,33.55-83.67c22.96-22.92,50.92-34.38,83.85-34.38
			c32.65,0,59.91,10.5,81.77,31.48c26.84,25.67,38.45,57.3,34.87,94.85H833.15z M1005.87,187.2c-1.1-20.15-9.94-37.83-26.51-53.02
			c-16.84-15.73-36.59-23.33-59.23-22.77c-23.76,0-43.78,7.6-60.06,22.77c-16.57,14.65-25.41,32.31-26.51,53.02H1005.87z"/>
		<path d="M1093.27,211.64c0.83,26.09,10.79,46.91,29.87,62.45c17.42,13.87,36.51,20.68,57.25,20.4c35.96,0,61.55-15.33,76.76-45.98
			h31.94c-10.51,24.03-25.58,42.07-45.22,54.13c-18.8,11.97-39.97,17.94-63.48,17.94c-36.79,0-66.1-12.56-87.95-37.69
			c-19.88-22.92-29.82-49.43-29.82-79.53c0-33.14,11.18-61.02,33.55-83.67c22.96-22.92,50.92-34.38,83.85-34.38
			c32.65,0,59.91,10.5,81.77,31.48c26.84,25.67,38.45,57.3,34.87,94.85H1093.27z M1266,187.2c-1.1-20.15-9.94-37.83-26.51-53.02
			c-16.84-15.73-36.59-23.33-59.23-22.77c-23.76,0-43.77,7.6-60.06,22.77c-16.57,14.65-25.41,32.31-26.51,53.02H1266z"/>
		<path d="M1357.12,115.96h-43.91V91.52h43.91V7.85h30.65v83.67h48.88v24.44h-48.88v198.41h-30.65V115.96z"/>
		<path d="M1443.69,202.74c0-31.97,10.9-59.27,32.72-81.88c22.31-23.43,50.82-35.14,85.53-35.14c34.98,0,63.63,11.71,85.95,35.14
			c21.54,22.61,32.31,50.04,32.31,82.29s-10.77,59.54-32.31,81.87c-22.31,23.43-50.97,35.15-85.95,35.15
			c-34.71,0-63.22-11.72-85.53-35.15c-21.82-22.33-32.72-49.61-32.72-81.87V202.74z M1474.34,203.35c0,25.41,8.4,46.53,25.21,63.38
			c16.8,16.85,37.61,25.27,62.4,25.27c24.79,0,45.59-8.42,62.4-25.27c16.8-16.84,25.21-38.11,25.21-63.79s-8.4-46.94-25.21-63.79
			c-16.81-16.83-37.61-25.26-62.4-25.26c-24.79,0-45.6,8.43-62.4,25.26c-16.8,16.85-25.21,38.11-25.21,63.79V203.35z"/>
		<path d="M1826.42,147.43c0-11.6-3.6-20.7-10.77-27.33c-7.19-6.35-16.3-9.53-27.34-9.53c-11.88,0-21.41,3.59-28.58,10.77
			c-6.91,6.9-10.22,15.32-9.94,25.26c0.55,10.22,4.56,18.09,12.06,23.61c5.81,4.7,16.49,9.39,32,14.08l12.06,3.31l12.05,3.73
			c9.14,3.31,16.49,7.04,22.04,11.18c14.69,10.5,22.45,26.24,23.28,47.22c0.83,20.44-5.98,37.42-20.41,50.95
			c-14.45,13.26-32.36,19.88-53.73,19.88c-19.72,0-36.94-5.8-51.65-17.4c-16.1-12.97-24.43-30.37-24.99-52.19h30.65
			c0.27,14.37,5.38,25.55,15.33,33.55c8.83,7.18,19.19,10.77,31.07,10.77c12.69,0,23.2-4.14,31.48-12.43c8-8,11.86-17.81,11.6-29.41
			c-0.28-12.15-4.84-21.67-13.67-28.58c-8.02-6.35-22.09-12.43-42.25-18.23c-9.39-2.75-17.4-5.73-24.03-8.9
			c-6.63-3.17-12.15-6.56-16.57-10.15c-10.77-9.38-16.44-22.22-16.98-38.52c0-19.05,6.92-34.65,20.77-46.8
			c13.01-11.32,29.36-16.98,49.02-16.98c18.01,0,32.97,4.7,44.88,14.08c14.68,11.32,22.43,27.34,23.27,48.04H1826.42z"/>
		<path d="M1912.58,7.85h30.65v120.54c6.64-13.81,17.71-24.71,33.22-32.72c14.11-6.9,29.61-10.21,46.5-9.94
			c32.93,0,57.57,10.08,73.9,30.24c14.11,17.67,21.17,43.77,21.17,78.28v120.13h-30.65V195.48c0-25.12-5.39-44.74-16.15-58.82
			c-12.7-15.18-31.34-22.77-55.91-22.77c-23.2,0-41.29,7.32-54.26,21.95c-11.88,12.71-17.81,29.97-17.81,51.78v126.75h-30.65V7.85z"
			/>
		<path d="M2400.1,314.37h-30.65v-45.98c-8.54,16.57-20.94,29.41-37.19,38.52c-15.71,9.11-33.61,13.67-53.72,13.67
			c-34.44,0-62.67-12.01-84.71-36.04c-20.71-22.64-31.07-49.84-31.07-81.6c0-33.14,10.9-60.89,32.72-83.25
			c22.04-22.92,49.72-34.38,83.06-34.38c21.76,0,41.46,5.66,59.09,16.98c14.87,9.67,25.48,21.68,31.82,36.03v-46.8h30.65V314.37z
			 M2193.41,203.56c0.55,23.25,7.85,43.05,21.9,59.37c16.53,19.66,38.98,29.48,67.36,29.48c19.28,0,36.08-5.12,50.41-15.36
			c13.51-9.41,23.42-22.42,29.76-39.03c4.96-10.79,7.43-22.55,7.43-35.29c0.55-13.28-1.79-25.18-7.02-35.71
			c-6.35-15.77-16.54-28.5-30.58-38.19c-14.6-10.24-31.54-15.36-50.83-15.36c-25.07,0-46.14,8.71-63.23,26.15
			c-16.8,16.88-25.21,38.06-25.21,63.52V203.56z"/>
		<path d="M2459.75,91.52h29.41v36.45c13.26-27.34,37-41.56,71.25-42.67v30.24h-2.9c-44.74,0-67.1,25.82-67.1,77.45v121.37h-30.65
			V91.52z"/>
		<path d="M2591.05,211.64c0.83,26.09,10.79,46.91,29.87,62.45c17.42,13.87,36.51,20.68,57.25,20.4c35.96,0,61.55-15.33,76.76-45.98
			h31.94c-10.51,24.03-25.58,42.07-45.22,54.13c-18.8,11.97-39.97,17.94-63.48,17.94c-36.79,0-66.1-12.56-87.95-37.69
			c-19.88-22.92-29.82-49.43-29.82-79.53c0-33.14,11.18-61.02,33.55-83.67c22.96-22.92,50.92-34.38,83.85-34.38
			c32.65,0,59.91,10.5,81.77,31.48c26.84,25.67,38.45,57.3,34.87,94.85H2591.05z M2763.78,187.2c-1.1-20.15-9.94-37.83-26.51-53.02
			c-16.84-15.73-36.59-23.33-59.23-22.77c-23.76,0-43.77,7.6-60.06,22.77c-16.57,14.65-25.41,32.31-26.51,53.02H2763.78z"/>
	</g>
</g>
</svg>